<!-- Generator: Adobe Illustrator 19.2.1, SVG Export Plug-In  -->
<svg version="1.1"
	 xmlns="http://www.w3.org/2000/svg" xmlns:xlink="http://www.w3.org/1999/xlink" xmlns:a="http://ns.adobe.com/AdobeSVGViewerExtensions/3.0/"
	 x="0px" y="0px" width="130.199px" height="40px" viewBox="0 0 131 40"
	 style="enable-background:new 0 0 131 40;" xml:space="preserve">
<style type="text/css">
	.st0{fill:#F99D27;}
	.st1{fill:#2CB34A;}
	.st2{fill:#0095DA;}
	.st3{fill:#ED0677;}
	.st4{fill:#00458C;}
</style>
<defs>
</defs>
<path class="st0" d="M31.185,5.529c0,1.762-1.427,3.189-3.188,3.189c-1.76,0-3.187-1.427-3.187-3.189
	c0-1.761,1.427-3.187,3.187-3.187C29.758,2.342,31.185,3.769,31.185,5.529"/>
<path class="st1" d="M43.102,4.076c0,2.251-1.825,4.077-4.077,4.077c-2.252,0-4.077-1.826-4.077-4.077
	C34.948,1.824,36.773,0,39.025,0C41.277,0,43.102,1.824,43.102,4.076"/>
<path class="st2" d="M58.209,6.429c0,2.983-2.42,5.403-5.403,5.403c-2.984,0-5.403-2.42-5.403-5.403s2.419-5.403,5.403-5.403
	C55.789,1.025,58.209,3.445,58.209,6.429"/>
<path class="st2" d="M68.935,32.085l-5.568-10.033l-3.578,4.627v5.406h-2.098V13.257h2.098v8.202v2.529
	c0.126-0.179,0.301-0.426,0.525-0.74c0.224-0.314,0.471-0.649,0.74-1.008c0.269-0.358,0.533-0.709,0.793-1.049
	c0.26-0.341,0.489-0.637,0.686-0.889l5.461-7.046h2.286l-5.514,7.072l6.563,11.756H68.935z"/>
<path class="st2" d="M84.148,22.697c0-1.184-0.148-2.254-0.444-3.215c-0.296-0.959-0.704-1.783-1.224-2.476
	c-0.52-0.689-1.13-1.219-1.829-1.586c-0.7-0.367-1.462-0.552-2.286-0.552c-0.807,0-1.557,0.184-2.247,0.552
	c-0.69,0.367-1.287,0.888-1.788,1.56c-0.502,0.673-0.897,1.489-1.184,2.448c-0.287,0.96-0.43,2.031-0.43,3.214
	c0,1.184,0.148,2.256,0.443,3.214c0.296,0.961,0.7,1.785,1.211,2.477c0.511,0.689,1.116,1.219,1.816,1.587
	c0.699,0.368,1.461,0.552,2.286,0.552c0.807,0,1.56-0.184,2.26-0.552c0.699-0.368,1.299-0.888,1.802-1.559
	c0.502-0.674,0.896-1.489,1.183-2.448S84.148,23.881,84.148,22.697 M86.246,22.643c0,1.416-0.188,2.723-0.565,3.914
	c-0.377,1.193-0.91,2.22-1.601,3.08c-0.69,0.861-1.519,1.533-2.488,2.019c-0.968,0.482-2.035,0.726-3.201,0.726
	c-1.165,0-2.228-0.238-3.187-0.713c-0.96-0.474-1.78-1.145-2.462-2.004c-0.681-0.862-1.206-1.884-1.573-3.066
	c-0.367-1.184-0.552-2.484-0.552-3.9c0-1.417,0.189-2.722,0.565-3.915c0.377-1.191,0.906-2.218,1.588-3.079
	c0.681-0.86,1.506-1.532,2.474-2.017c0.968-0.484,2.035-0.726,3.201-0.726s2.228,0.237,3.188,0.713
	c0.959,0.475,1.779,1.143,2.461,2.003c0.681,0.861,1.21,1.884,1.587,3.067C86.058,19.926,86.246,21.227,86.246,22.643"/>
<polygon class="st2" points="88.099,32.085 88.099,13.257 90.197,13.257 90.197,30.175 99.503,30.175 99.503,32.085 "/>
<polygon class="st2" points="101.001,32.085 101.001,13.257 112.379,13.257 112.379,15.165 103.099,15.165 103.099,21.082 
	108.479,21.082 108.479,22.993 103.099,22.993 103.099,30.175 112.782,30.175 112.782,32.085 "/>
<path class="st2" d="M118.973,32.381c-1.597,0-2.865-0.39-3.807-1.171c-0.941-0.779-1.663-1.905-2.165-3.375l1.991-0.672
	c0.376,1.021,0.869,1.828,1.479,2.42c0.609,0.592,1.47,0.889,2.582,0.889c1.506,0,2.592-0.454,3.255-1.359
	c0.663-0.905,0.996-2.344,0.996-4.317V13.256h2.098v11.62C125.402,29.88,123.258,32.381,118.973,32.381"/>
<path class="st2" d="M127.751,17.127h2.044v14.959h-2.044V17.127z M130.199,14.009c0,0.394-0.139,0.729-0.417,1.009
	c-0.278,0.277-0.605,0.416-0.982,0.416c-0.413,0-0.762-0.139-1.049-0.416c-0.287-0.279-0.43-0.615-0.43-1.009
	c0-0.412,0.143-0.757,0.43-1.036c0.287-0.278,0.636-0.416,1.049-0.416c0.377,0,0.704,0.138,0.982,0.416
	C130.06,13.252,130.199,13.597,130.199,14.009"/>
<path class="st3" d="M21.204,9.732c0,1.267-1.028,2.293-2.294,2.293c-1.267,0-2.295-1.026-2.295-2.293
	c0-1.269,1.028-2.295,2.295-2.295C20.176,7.437,21.204,8.464,21.204,9.732"/>
<path class="st4" d="M11.386,26.085c0-1.621-0.895-2.433-2.685-2.433H3.706v4.889h4.995c0.913,0,1.588-0.222,2.028-0.661
	C11.167,27.437,11.386,26.84,11.386,26.085 M10.795,18.551c0-0.591-0.179-1.038-0.537-1.343c-0.358-0.304-0.949-0.456-1.772-0.456
	h-4.78v3.572h4.968c0.788,0,1.338-0.166,1.651-0.497C10.639,19.495,10.795,19.07,10.795,18.551 M15.226,26.017
	c0,0.985-0.161,1.857-0.483,2.618c-0.323,0.761-0.775,1.396-1.356,1.906c-0.582,0.51-1.285,0.895-2.108,1.154
	c-0.824,0.261-1.737,0.391-2.74,0.391H0V13.288h8.62c1.826,0,3.276,0.425,4.35,1.274c1.075,0.851,1.611,2.081,1.611,3.692
	c0,0.806-0.174,1.522-0.523,2.148c-0.349,0.629-0.837,1.129-1.464,1.505c0.753,0.34,1.379,0.851,1.88,1.529
	C14.975,24.119,15.226,24.978,15.226,26.017"/>
<rect x="17.03" y="13.288" class="st4" width="3.76" height="18.798"/>
<path class="st4" d="M35.124,30.463c-0.528-0.611-0.98-1.31-1.351-2.084H26.81V13.288h-3.759v18.797h13.931
	C36.292,31.641,35.67,31.097,35.124,30.463"/>
<path class="st4" d="M48.883,28.031c-0.376,0.943-0.9,1.737-1.571,2.384c-0.671,0.646-1.468,1.136-2.39,1.468
	c-0.922,0.331-1.929,0.499-3.021,0.499c-1.235,0-2.354-0.229-3.357-0.686c-1.002-0.457-1.866-1.105-2.591-1.947
	c-0.725-0.842-1.285-1.857-1.679-3.048c-0.394-1.191-0.59-2.529-0.59-4.015c0-1.432,0.205-2.743,0.617-3.933
	c0.412-1.192,0.985-2.212,1.719-3.062c0.734-0.85,1.611-1.513,2.632-1.988c1.02-0.474,2.148-0.712,3.383-0.712
	c0.967,0,1.822,0.109,2.565,0.323c0.743,0.214,1.4,0.528,1.974,0.941c0.572,0.41,1.069,0.907,1.49,1.488
	c0.421,0.581,0.783,1.231,1.088,1.947l-3.572,1.478c-0.179-0.341-0.372-0.661-0.577-0.967c-0.206-0.305-0.448-0.565-0.726-0.779
	c-0.277-0.216-0.604-0.386-0.98-0.511c-0.376-0.124-0.815-0.187-1.315-0.187c-0.698,0-1.325,0.146-1.88,0.443
	c-0.555,0.295-1.021,0.707-1.397,1.233c-0.375,0.529-0.662,1.155-0.859,1.88c-0.197,0.727-0.295,1.527-0.295,2.404
	c0,0.86,0.098,1.656,0.295,2.39c0.197,0.733,0.488,1.369,0.873,1.907c0.384,0.537,0.855,0.957,1.409,1.262
	c0.555,0.306,1.182,0.456,1.88,0.456c0.645,0,1.191-0.071,1.639-0.214c0.447-0.143,0.809-0.34,1.087-0.592
	c0.277-0.25,0.492-0.55,0.645-0.898c0.152-0.35,0.255-0.73,0.309-1.143h-2.981V22.31h6.74v2.479
	C49.447,26.009,49.259,27.09,48.883,28.031"/>
<rect x="50.927" y="13.288" class="st4" width="3.759" height="18.798"/>
</svg>